<?xml version="1.0"?>
<svg xmlns="http://www.w3.org/2000/svg" xmlns:xlink="http://www.w3.org/1999/xlink" version="1.1" id="Layer_1" x="0px" y="0px" viewBox="0 0 512 512" style="enable-background:new 0 0 512 512;" xml:space="preserve" width="20px" height="20px"><g><g>
	<g>
		<polygon points="395.189,271.605 445.792,322.209 512,255.999 445.792,189.791 395.189,240.394 345.659,240.394 330.433,203.635     365.455,168.613 437.019,168.613 437.019,74.98 343.386,74.98 343.386,146.544 308.364,181.566 271.605,166.341 271.605,116.811     322.209,66.208 255.999,0 189.791,66.208 240.394,116.811 240.394,166.341 203.635,181.566 168.613,146.544 168.613,74.98     74.98,74.98 74.98,168.613 146.544,168.613 181.566,203.635 166.341,240.394 116.811,240.394 66.208,189.791 0,255.999     66.208,322.209 116.811,271.605 166.341,271.605 181.566,308.364 146.544,343.386 74.98,343.386 74.98,437.019 168.613,437.019     168.613,365.455 203.635,330.433 240.394,345.659 240.394,395.189 189.791,445.792 255.999,512 322.209,445.792 271.605,395.189     271.605,345.659 308.364,330.433 343.386,365.455 343.386,437.019 437.019,437.019 437.019,343.386 365.455,343.386     330.433,308.364 345.659,271.605   " data-original="#000000" class="active-path" data-old_color="#000000" fill="#FFFFFF"/>
	</g>
</g></g> </svg>
